<svg width="24" height="24" viewBox="0 0 24 24" fill="none" xmlns="http://www.w3.org/2000/svg">
<path d="M5.07954 8.60922C5.23635 8.23986 5.59876 8 6.00003 8L18 8C18.4013 8 18.7637 8.23986 18.9205 8.60922C19.0773 8.97858 18.9982 9.4059 18.7194 9.69458L13.3988 15.2055L13.3988 15.2055C13.2575 15.352 13.0899 15.5258 12.9263 15.6551C12.7302 15.8101 12.4211 16 12 16C11.5789 16 11.2698 15.81 11.0738 15.6551C10.9101 15.5258 10.7426 15.352 10.6013 15.2055L5.28061 9.69458C5.0019 9.4059 4.92273 8.97858 5.07954 8.60922Z" fill="white"/>
</svg>
