<svg width="32" height="32" viewBox="0 0 32 32" fill="none" xmlns="http://www.w3.org/2000/svg">
<path d="M0 10.6667C0 4.77563 4.77563 0 10.6667 0H16V16H5.33333C2.38782 16 0 13.6122 0 10.6667Z" fill="#526ED3"/>
<path d="M16 0H20C26.6274 0 32 5.37258 32 12V16C23.1634 16 16 8.83656 16 0Z" fill="#526ED3"/>
<path d="M16 16H26.6667C29.6122 16 32 18.3878 32 21.3333C32 27.2244 27.2244 32 21.3333 32H16V16Z" fill="#526ED3"/>
<path d="M0 16C8.83656 16 16 23.1634 16 32H12C5.37258 32 0 26.6274 0 20V16Z" fill="#526ED3"/>
</svg>
