<svg width="24" height="24" viewBox="0 0 24 24" fill="none" xmlns="http://www.w3.org/2000/svg">
<g clip-path="url(#clip0_962_567906)">
<path d="M12 0C5.37258 0 0 5.37258 0 12C0 18.6274 5.37258 24 12 24C18.6274 24 24 18.6274 24 12C24 5.37258 18.6274 0 12 0Z" fill="#F0F0F0"/>
<path d="M21.5197 19.3057C22.4623 18.0793 23.1731 16.6658 23.5869 15.1302H17.3442L21.5197 19.3057Z" fill="#0052B4"/>
<path d="M0.413625 15.1302C0.827485 16.6658 1.5383 18.0793 2.48086 19.3057L6.65625 15.1302H0.413625Z" fill="#0052B4"/>
<path d="M23.5869 8.87012C23.173 7.33459 22.4622 5.92107 21.5197 4.69473L17.3443 8.87012H23.5869Z" fill="#0052B4"/>
<path d="M4.69468 21.5196C5.92107 22.4622 7.33454 23.173 8.87012 23.5869V17.3442L4.69468 21.5196Z" fill="#0052B4"/>
<path d="M19.3057 2.48091C18.0793 1.5383 16.6658 0.827531 15.1302 0.413625V6.65625L19.3057 2.48091Z" fill="#0052B4"/>
<path d="M15.1303 23.5869C16.6658 23.173 18.0793 22.4622 19.3057 21.5197L15.1303 17.3443V23.5869Z" fill="#0052B4"/>
<path d="M8.87012 0.413625C7.33459 0.827531 5.92107 1.5383 4.69473 2.48086L8.87012 6.65625V0.413625Z" fill="#0052B4"/>
<path d="M6.65625 8.87012L2.48086 4.69468C1.5383 5.92102 0.827485 7.33459 0.413625 8.87012H6.65625Z" fill="#0052B4"/>
<path d="M0.101578 13.5652L10.4347 13.5652H10.4347L10.4347 23.8984C10.9471 23.9651 11.4695 24 12 24C12.5306 24 13.0529 23.9651 13.5652 23.8984L13.5652 13.5653V13.5653L23.8984 13.5653C23.9651 13.0529 24 12.5305 24 12C24 11.4694 23.9651 10.9471 23.8984 10.4348L13.5653 10.4348H13.5653L13.5653 0.101578C13.0529 0.034874 12.5306 0 12 0C11.4695 0 10.9471 0.0348282 10.4348 0.101578L10.4348 10.4347V10.4347L0.101578 10.4347C0.034874 10.9471 0 11.4694 0 12C0 12.5305 0.034874 13.0529 0.101578 13.5652Z" fill="#D80027"/>
<path d="M8.86914 8.86909L3.51433 3.51428C3.26805 3.76047 3.03311 4.01786 2.80895 4.28467L7.39342 8.86914H8.86914V8.86909Z" fill="#D80027"/>
<path d="M15.1305 8.86914H15.1306L20.4854 3.51437C20.2392 3.26809 19.9818 3.03316 19.715 2.809L15.1305 7.39356V8.86914Z" fill="#D80027"/>
<path d="M15.1302 15.1304V15.1305L20.4851 20.4854C20.7313 20.2392 20.9663 19.9818 21.1904 19.715L16.6059 15.1304H15.1302V15.1304Z" fill="#D80027"/>
<path d="M8.86914 15.1302L3.51428 20.4851C3.76047 20.7314 4.01786 20.9663 4.28467 21.1904L8.86914 16.6059V15.1302Z" fill="#D80027"/>
</g>
<defs>
<clipPath id="clip0_962_567906">
<rect width="24" height="24" fill="white" transform="matrix(-1 0 0 -1 24 24)"/>
</clipPath>
</defs>
</svg>
