<svg width="81" height="81" viewBox="0 0 81 81" fill="none" xmlns="http://www.w3.org/2000/svg">
<rect y="40.4912" width="57.2632" height="57.2632" rx="21.0526" transform="rotate(-45 0 40.4912)" fill="white"/>
<g filter="url(#filter0_i_771_273982)">
<path d="M25.8809 39.7332H31.3967C32.0143 39.7332 32.4915 39.5929 32.8283 39.3122C33.1792 39.0315 33.3546 38.6245 33.3546 38.0911C33.3546 37.5578 33.1792 37.1508 32.8283 36.8701C32.4915 36.5894 32.0143 36.449 31.3967 36.449H25.1862L27.3967 34.1753V48.7017H22.4915V32.9122H32.1336C33.3546 32.9122 34.4283 33.1297 35.3546 33.5648C36.2809 33.9999 37.0037 34.6034 37.523 35.3753C38.0423 36.1473 38.302 37.0525 38.302 38.0911C38.302 39.1017 38.0423 39.9999 37.523 40.7859C37.0037 41.5578 36.2809 42.1613 35.3546 42.5964C34.4283 43.0174 33.3546 43.228 32.1336 43.228H25.8809V39.7332ZM27.9862 41.3122H33.4388L38.8704 48.7017H33.2494L27.9862 41.3122ZM55.2974 45.2069L53.8869 45.5017V32.9122H58.6447V48.7017H52.4974L44.0132 36.1122L45.4026 35.8175V48.7017H40.6658V32.9122H47.0026L55.2974 45.2069Z" fill="black"/>
</g>
<defs>
<filter id="filter0_i_771_273982" x="22.4912" y="32.9121" width="36.1533" height="19.158" filterUnits="userSpaceOnUse" color-interpolation-filters="sRGB">
<feFlood flood-opacity="0" result="BackgroundImageFix"/>
<feBlend mode="normal" in="SourceGraphic" in2="BackgroundImageFix" result="shape"/>
<feColorMatrix in="SourceAlpha" type="matrix" values="0 0 0 0 0 0 0 0 0 0 0 0 0 0 0 0 0 0 127 0" result="hardAlpha"/>
<feOffset dy="3.36842"/>
<feGaussianBlur stdDeviation="19.3684"/>
<feComposite in2="hardAlpha" operator="arithmetic" k2="-1" k3="1"/>
<feColorMatrix type="matrix" values="0 0 0 0 0 0 0 0 0 0 0 0 0 0 0 0 0 0 1 0"/>
<feBlend mode="normal" in2="shape" result="effect1_innerShadow_771_273982"/>
</filter>
</defs>
</svg>
