<svg width="243" height="45" viewBox="0 0 243 45" fill="none" xmlns="http://www.w3.org/2000/svg">
<rect y="22.27" width="31.4947" height="31.4947" rx="11.5789" transform="rotate(-45 0 22.27)" fill="#222222"/>
<g filter="url(#filter0_i_1000_569897)">
<path d="M14.2345 21.8533H17.2682C17.6078 21.8533 17.8703 21.7761 18.0556 21.6217C18.2486 21.4673 18.345 21.2434 18.345 20.9501C18.345 20.6568 18.2486 20.4329 18.0556 20.2785C17.8703 20.1241 17.6078 20.0469 17.2682 20.0469H13.8524L15.0682 18.7964V26.7859H12.3703V18.1017H17.6735C18.345 18.1017 18.9356 18.2213 19.445 18.4606C19.9545 18.6999 20.3521 19.0319 20.6377 19.4564C20.9233 19.881 21.0661 20.3789 21.0661 20.9501C21.0661 21.5059 20.9233 21.9999 20.6377 22.4322C20.3521 22.8568 19.9545 23.1887 19.445 23.428C18.9356 23.6596 18.345 23.7754 17.6735 23.7754H14.2345V21.8533ZM15.3924 22.7217H18.3914L21.3787 26.7859H18.2871L15.3924 22.7217ZM30.4136 24.8638L29.6378 25.0259V18.1017H32.2546V26.7859H28.8736L24.2072 19.8617L24.9715 19.6996V26.7859H22.3662V18.1017H25.8515L30.4136 24.8638Z" fill="white"/>
</g>
<path d="M52.068 21.602H56.784C57.312 21.602 57.72 21.482 58.008 21.242C58.308 21.002 58.458 20.654 58.458 20.198C58.458 19.742 58.308 19.394 58.008 19.154C57.72 18.914 57.312 18.794 56.784 18.794H51.474L53.364 16.85V29.27H49.17V15.77H57.414C58.458 15.77 59.376 15.956 60.168 16.328C60.96 16.7 61.578 17.216 62.022 17.876C62.466 18.536 62.688 19.31 62.688 20.198C62.688 21.062 62.466 21.83 62.022 22.502C61.578 23.162 60.96 23.678 60.168 24.05C59.376 24.41 58.458 24.59 57.414 24.59H52.068V21.602ZM53.868 22.952H58.53L63.174 29.27H58.368L53.868 22.952ZM73.2336 29.27L72.7476 25.598L73.2516 24.122L72.7476 22.664L73.2336 18.956H77.5176L76.8336 24.104L77.5176 29.27H73.2336ZM74.1516 24.122C74.0076 25.214 73.6896 26.174 73.1976 27.002C72.7176 27.818 72.0936 28.454 71.3256 28.91C70.5696 29.354 69.6996 29.576 68.7156 29.576C67.7196 29.576 66.8376 29.348 66.0696 28.892C65.3016 28.436 64.7016 27.8 64.2696 26.984C63.8496 26.156 63.6396 25.202 63.6396 24.122C63.6396 23.018 63.8496 22.058 64.2696 21.242C64.7016 20.414 65.3016 19.778 66.0696 19.334C66.8376 18.878 67.7196 18.65 68.7156 18.65C69.6996 18.65 70.5696 18.872 71.3256 19.316C72.0936 19.76 72.7236 20.396 73.2156 21.224C73.7076 22.04 74.0196 23.006 74.1516 24.122ZM67.7976 24.122C67.7976 24.578 67.8876 24.98 68.0676 25.328C68.2596 25.676 68.5236 25.952 68.8596 26.156C69.1956 26.36 69.5796 26.462 70.0116 26.462C70.4556 26.462 70.8816 26.36 71.2896 26.156C71.6976 25.952 72.0576 25.676 72.3696 25.328C72.6816 24.98 72.9096 24.578 73.0536 24.122C72.9096 23.666 72.6816 23.264 72.3696 22.916C72.0576 22.556 71.6976 22.274 71.2896 22.07C70.8816 21.866 70.4556 21.764 70.0116 21.764C69.5796 21.764 69.1956 21.866 68.8596 22.07C68.5236 22.274 68.2596 22.556 68.0676 22.916C67.8876 23.264 67.7976 23.666 67.7976 24.122ZM91.9897 18.956V32.24H87.8677V26.246L88.0297 25.328V22.178L87.8677 21.71V18.956H91.9897ZM89.1277 24.122C88.9837 25.214 88.6657 26.174 88.1737 27.002C87.6937 27.818 87.0697 28.454 86.3017 28.91C85.5457 29.354 84.6817 29.576 83.7097 29.576C82.7017 29.576 81.8137 29.348 81.0457 28.892C80.2897 28.436 79.6957 27.8 79.2637 26.984C78.8317 26.156 78.6157 25.202 78.6157 24.122C78.6157 23.018 78.8317 22.058 79.2637 21.242C79.6957 20.414 80.2897 19.778 81.0457 19.334C81.8137 18.878 82.7017 18.65 83.7097 18.65C84.6817 18.65 85.5457 18.872 86.3017 19.316C87.0697 19.76 87.6997 20.396 88.1917 21.224C88.6837 22.04 88.9957 23.006 89.1277 24.122ZM82.7917 24.122C82.7917 24.578 82.8817 24.98 83.0617 25.328C83.2537 25.676 83.5117 25.952 83.8357 26.156C84.1717 26.36 84.5557 26.462 84.9877 26.462C85.4437 26.462 85.8757 26.36 86.2837 26.156C86.6917 25.952 87.0457 25.676 87.3457 25.328C87.6577 24.98 87.8857 24.578 88.0297 24.122C87.8857 23.666 87.6577 23.264 87.3457 22.916C87.0457 22.556 86.6917 22.274 86.2837 22.07C85.8757 21.866 85.4437 21.764 84.9877 21.764C84.5557 21.764 84.1717 21.866 83.8357 22.07C83.5117 22.274 83.2537 22.556 83.0617 22.916C82.8817 23.264 82.7917 23.666 82.7917 24.122ZM103.064 29.27L102.578 25.598L103.082 24.122L102.578 22.664L103.064 18.956H107.348L106.664 24.104L107.348 29.27H103.064ZM103.982 24.122C103.838 25.214 103.52 26.174 103.028 27.002C102.548 27.818 101.924 28.454 101.156 28.91C100.4 29.354 99.5297 29.576 98.5457 29.576C97.5497 29.576 96.6677 29.348 95.8997 28.892C95.1317 28.436 94.5317 27.8 94.0997 26.984C93.6797 26.156 93.4697 25.202 93.4697 24.122C93.4697 23.018 93.6797 22.058 94.0997 21.242C94.5317 20.414 95.1317 19.778 95.8997 19.334C96.6677 18.878 97.5497 18.65 98.5457 18.65C99.5297 18.65 100.4 18.872 101.156 19.316C101.924 19.76 102.554 20.396 103.046 21.224C103.538 22.04 103.85 23.006 103.982 24.122ZM97.6277 24.122C97.6277 24.578 97.7177 24.98 97.8977 25.328C98.0897 25.676 98.3537 25.952 98.6897 26.156C99.0257 26.36 99.4097 26.462 99.8417 26.462C100.286 26.462 100.712 26.36 101.12 26.156C101.528 25.952 101.888 25.676 102.2 25.328C102.512 24.98 102.74 24.578 102.884 24.122C102.74 23.666 102.512 23.264 102.2 22.916C101.888 22.556 101.528 22.274 101.12 22.07C100.712 21.866 100.286 21.764 99.8417 21.764C99.4097 21.764 99.0257 21.866 98.6897 22.07C98.3537 22.274 98.0897 22.556 97.8977 22.916C97.7177 23.264 97.6277 23.666 97.6277 24.122ZM108.479 18.956H112.601L113.303 23.222V29.27H109.181V22.592L108.479 18.956ZM116.777 18.65C117.737 18.65 118.553 18.848 119.225 19.244C119.897 19.64 120.407 20.204 120.755 20.936C121.115 21.656 121.295 22.502 121.295 23.474V29.27H117.173V24.068C117.173 23.396 117.011 22.88 116.687 22.52C116.375 22.16 115.925 21.98 115.337 21.98C114.917 21.98 114.551 22.076 114.239 22.268C113.939 22.46 113.705 22.73 113.537 23.078C113.381 23.426 113.303 23.846 113.303 24.338L112.061 23.69C112.217 22.574 112.517 21.644 112.961 20.9C113.417 20.156 113.975 19.598 114.635 19.226C115.295 18.842 116.009 18.65 116.777 18.65ZM124.751 18.65C125.711 18.65 126.527 18.848 127.199 19.244C127.883 19.64 128.399 20.204 128.747 20.936C129.107 21.656 129.287 22.502 129.287 23.474V29.27H125.165V24.068C125.165 23.396 125.003 22.88 124.679 22.52C124.367 22.16 123.917 21.98 123.329 21.98C122.909 21.98 122.543 22.076 122.231 22.268C121.931 22.46 121.697 22.73 121.529 23.078C121.373 23.426 121.295 23.846 121.295 24.338L120.053 23.69C120.209 22.574 120.509 21.644 120.953 20.9C121.409 20.156 121.961 19.598 122.609 19.226C123.269 18.842 123.983 18.65 124.751 18.65ZM131.026 15.41H135.148V29.27H131.026V15.41ZM137.038 18.758L139.108 19.19L141.16 18.758V29.27H137.038V18.758ZM139.108 18.074C138.412 18.074 137.848 17.9 137.416 17.552C136.984 17.204 136.768 16.736 136.768 16.148C136.768 15.548 136.984 15.074 137.416 14.726C137.848 14.378 138.412 14.204 139.108 14.204C139.828 14.204 140.398 14.378 140.818 14.726C141.25 15.074 141.466 15.548 141.466 16.148C141.466 16.736 141.25 17.204 140.818 17.552C140.398 17.9 139.828 18.074 139.108 18.074ZM160.153 26.282L158.947 26.534V15.77H163.015V29.27H157.759L150.505 18.506L151.693 18.254V29.27H147.643V15.77H153.061L160.153 26.282ZM174.15 29.27L173.664 25.598L174.168 24.122L173.664 22.664L174.15 18.956H178.434L177.75 24.104L178.434 29.27H174.15ZM175.068 24.122C174.924 25.214 174.606 26.174 174.114 27.002C173.634 27.818 173.01 28.454 172.242 28.91C171.486 29.354 170.616 29.576 169.632 29.576C168.636 29.576 167.754 29.348 166.986 28.892C166.218 28.436 165.618 27.8 165.186 26.984C164.766 26.156 164.556 25.202 164.556 24.122C164.556 23.018 164.766 22.058 165.186 21.242C165.618 20.414 166.218 19.778 166.986 19.334C167.754 18.878 168.636 18.65 169.632 18.65C170.616 18.65 171.486 18.872 172.242 19.316C173.01 19.76 173.64 20.396 174.132 21.224C174.624 22.04 174.936 23.006 175.068 24.122ZM168.714 24.122C168.714 24.578 168.804 24.98 168.984 25.328C169.176 25.676 169.44 25.952 169.776 26.156C170.112 26.36 170.496 26.462 170.928 26.462C171.372 26.462 171.798 26.36 172.206 26.156C172.614 25.952 172.974 25.676 173.286 25.328C173.598 24.98 173.826 24.578 173.97 24.122C173.826 23.666 173.598 23.264 173.286 22.916C172.974 22.556 172.614 22.274 172.206 22.07C171.798 21.866 171.372 21.764 170.928 21.764C170.496 21.764 170.112 21.866 169.776 22.07C169.44 22.274 169.176 22.556 168.984 22.916C168.804 23.264 168.714 23.666 168.714 24.122ZM179.817 29.27V26.426L186.621 21.422L189.573 21.872H179.853V18.956H191.139V21.8L184.335 26.804L181.833 26.354H191.175V29.27H179.817ZM198.831 29.576C197.499 29.576 196.329 29.348 195.321 28.892C194.313 28.436 193.527 27.8 192.963 26.984C192.399 26.156 192.117 25.202 192.117 24.122C192.117 23.018 192.399 22.058 192.963 21.242C193.527 20.414 194.313 19.778 195.321 19.334C196.329 18.878 197.505 18.65 198.849 18.65C200.181 18.65 201.351 18.878 202.359 19.334C203.367 19.778 204.147 20.414 204.699 21.242C205.263 22.058 205.545 23.018 205.545 24.122C205.545 25.202 205.263 26.156 204.699 26.984C204.147 27.8 203.367 28.436 202.359 28.892C201.351 29.348 200.175 29.576 198.831 29.576ZM198.849 26.552C199.389 26.552 199.845 26.456 200.217 26.264C200.601 26.072 200.889 25.796 201.081 25.436C201.285 25.064 201.387 24.626 201.387 24.122C201.387 23.606 201.285 23.168 201.081 22.808C200.889 22.436 200.601 22.154 200.217 21.962C199.845 21.77 199.389 21.674 198.849 21.674C198.309 21.674 197.847 21.77 197.463 21.962C197.079 22.154 196.785 22.436 196.581 22.808C196.389 23.168 196.293 23.6 196.293 24.104C196.293 24.62 196.389 25.064 196.581 25.436C196.785 25.796 197.079 26.072 197.463 26.264C197.847 26.456 198.309 26.552 198.849 26.552ZM206.407 18.956H210.619L211.231 22.61V29.27H207.109V22.484L206.407 18.956ZM215.929 18.758V22.268C215.545 22.196 215.191 22.148 214.867 22.124C214.555 22.088 214.267 22.07 214.003 22.07C213.511 22.07 213.055 22.166 212.635 22.358C212.215 22.538 211.873 22.856 211.609 23.312C211.357 23.756 211.231 24.374 211.231 25.166L210.475 24.23C210.583 23.486 210.727 22.784 210.907 22.124C211.099 21.452 211.357 20.858 211.681 20.342C212.005 19.814 212.407 19.4 212.887 19.1C213.379 18.8 213.979 18.65 214.687 18.65C214.879 18.65 215.077 18.662 215.281 18.686C215.485 18.698 215.701 18.722 215.929 18.758ZM226.128 29.27L225.642 25.598L226.146 24.122L225.642 22.664L226.128 18.956H230.412L229.728 24.104L230.412 29.27H226.128ZM227.046 24.122C226.902 25.214 226.584 26.174 226.092 27.002C225.612 27.818 224.988 28.454 224.22 28.91C223.464 29.354 222.594 29.576 221.61 29.576C220.614 29.576 219.732 29.348 218.964 28.892C218.196 28.436 217.596 27.8 217.164 26.984C216.744 26.156 216.534 25.202 216.534 24.122C216.534 23.018 216.744 22.058 217.164 21.242C217.596 20.414 218.196 19.778 218.964 19.334C219.732 18.878 220.614 18.65 221.61 18.65C222.594 18.65 223.464 18.872 224.22 19.316C224.988 19.76 225.618 20.396 226.11 21.224C226.602 22.04 226.914 23.006 227.046 24.122ZM220.692 24.122C220.692 24.578 220.782 24.98 220.962 25.328C221.154 25.676 221.418 25.952 221.754 26.156C222.09 26.36 222.474 26.462 222.906 26.462C223.35 26.462 223.776 26.36 224.184 26.156C224.592 25.952 224.952 25.676 225.264 25.328C225.576 24.98 225.804 24.578 225.948 24.122C225.804 23.666 225.576 23.264 225.264 22.916C224.952 22.556 224.592 22.274 224.184 22.07C223.776 21.866 223.35 21.764 222.906 21.764C222.474 21.764 222.09 21.866 221.754 22.07C221.418 22.274 221.154 22.556 220.962 22.916C220.782 23.264 220.692 23.666 220.692 24.122ZM231.202 21.98V20.198L233.254 19.262L235.054 16.166H237.394V18.956H241.57V21.98H237.394V24.554C237.394 25.25 237.526 25.742 237.79 26.03C238.066 26.318 238.6 26.462 239.392 26.462C239.884 26.462 240.322 26.426 240.706 26.354C241.09 26.27 241.438 26.168 241.75 26.048V29.09C241.366 29.21 240.88 29.318 240.292 29.414C239.704 29.522 239.086 29.576 238.438 29.576C237.262 29.576 236.29 29.396 235.522 29.036C234.766 28.676 234.196 28.16 233.812 27.488C233.44 26.816 233.254 26.024 233.254 25.112V21.98H231.202Z" fill="black"/>
<defs>
<filter id="filter0_i_1000_569897" x="12.3704" y="18.1016" width="19.8843" height="10.537" filterUnits="userSpaceOnUse" color-interpolation-filters="sRGB">
<feFlood flood-opacity="0" result="BackgroundImageFix"/>
<feBlend mode="normal" in="SourceGraphic" in2="BackgroundImageFix" result="shape"/>
<feColorMatrix in="SourceAlpha" type="matrix" values="0 0 0 0 0 0 0 0 0 0 0 0 0 0 0 0 0 0 127 0" result="hardAlpha"/>
<feOffset dy="1.85263"/>
<feGaussianBlur stdDeviation="10.6526"/>
<feComposite in2="hardAlpha" operator="arithmetic" k2="-1" k3="1"/>
<feColorMatrix type="matrix" values="0 0 0 0 1 0 0 0 0 1 0 0 0 0 1 0 0 0 1 0"/>
<feBlend mode="normal" in2="shape" result="effect1_innerShadow_1000_569897"/>
</filter>
</defs>
</svg>
