<svg width="758" height="758" viewBox="0 0 758 758" fill="none" xmlns="http://www.w3.org/2000/svg">
<path d="M746.59 410.708L746.575 411.005L745.832 413.361L749.019 435.69L752.285 379.345L749.793 355.97L746.59 410.708ZM489.335 30.1934L491.222 31.7852L526.998 40.2268L525.977 39.8212L480.762 22.2979L453.574 16.3685L489.335 30.1934ZM304.962 14.1529L308.18 14.4025L318.687 11.2817L278.068 18.9587L276.072 19.6453L304.962 14.1529ZM448.174 737.296L446.503 737.999L379.299 749.062L410.077 752.229L474.402 741.665L448.174 737.296ZM484.677 739.98L554.65 710.271L530.975 701.985L530.774 702.125L452.243 735.564L481.691 740.464L484.677 739.98ZM682.574 598.875L670.597 578.527L608.717 646.076L627.146 660.307L628.972 659.012L678.226 605.272L682.574 598.875ZM717.391 499.9L672.238 576.702L683.936 596.55L724.338 527.753L724.694 526.614L717.391 499.9ZM719.603 496.014L719.526 496.264L719 497.154L725.994 522.494L748.014 452.932L748.323 447.549L744.176 418.542L719.603 496.014ZM611.394 95.4174L616.5 99.1779L610.759 94.3565L611.394 95.4174ZM424.22 10.002L420.738 9.75238L370.107 20.8311L417.257 39.1501L418 39.7742L480.809 31.9879L424.22 10.002ZM98.5075 147.612L132.148 111.193L126.222 98.8036L82.6312 145.88L98.5075 147.612ZM26.2285 262.004L57.5787 235.399L57.6407 234.697L71.6293 193.597L45.9424 205.206L45.37 206.158L33.1918 241.688L26.2285 262.004ZM11.5128 307.146L6.62299 360.916L14.4836 331.316L14.0659 329.147L14.004 328.82L17.7023 288.016L11.5128 307.146ZM15.83 441.042L25.4548 387.646L24.7739 386.398L15.4894 336.715L5.35394 374.944L4.76611 381.42L15.83 441.042ZM213.897 708.897L257.193 727.778L232.249 712.861L229.944 712.627L229.588 712.58L193.363 696.804L213.897 708.897ZM354.107 746.44L314.293 721.224L313.101 721.427L237.867 713.454L274.323 735.252L282.432 738.779L354.107 746.44ZM720.207 283.646L715.333 365.051L715.317 365.348L715.101 365.988L742.164 405.465L746.729 327.571L746.095 324.809L720.207 283.646ZM705.692 212.368L720.47 277.655L720.547 277.982L720.439 279.699L744.517 317.881L729.631 252.392L705.692 212.368ZM574.921 131.384L575.107 131.712L575.215 132.164L641.785 155.664L606.241 96.0104L604.709 94.7308L542.875 77.239L574.921 131.384ZM460.785 77.3483L487.354 122.709L569.211 131.026L536.886 76.3807L536.484 76.0531L460.785 77.3483ZM303.894 57.11L304.761 57.4535L358.765 22.9066L305.225 18.9431L303.971 19.1927L265.813 54.2078L303.894 57.11ZM176.264 80.2661L216.636 62.4153L217.828 62.1813L238.3 32.9554L183.15 57.2974L182.501 57.7811L176.264 80.2661ZM134.051 109.742L172.69 81.842L173.464 81.4989L179.437 59.9812L128.001 97.0403L134.051 109.742ZM49.0372 508.482L94.8403 550.253L92.4418 472.5L92.2717 472.437L54.1591 437.921L48.5422 507.561L49.0372 508.482ZM119.723 623.747L185.487 652.256L158.686 584.004L98.5232 558.258L118.748 622.858L119.723 623.747ZM687.062 453.993L687 454.165L716.029 491.645L741.901 410.131L741.948 409.304L714.218 368.796L687.062 453.993ZM665.707 234.728L665.769 235.072L665.738 235.633L714.822 274.05L698.079 200.072L696.888 198.106L649.522 162.467L665.707 234.728ZM590.426 201.289L590.488 201.555L660.384 232.622L643.997 159.393L643.688 158.862L575.819 134.895L590.426 201.289ZM18.7701 328.585L28.4722 380.515L61.7413 320.253L61.6951 320.175L54.4685 282.632L18.8783 327.478L18.7701 328.585ZM80.697 354.8L80.6508 354.753L63.0877 322.703L29.1685 384.166L29.277 384.775L53.6174 429.589L80.697 354.8ZM55.1649 432.444L93.0608 466.742L109.649 380.749L82.6004 356.501L55.1186 432.366L55.1649 432.444ZM97.44 552.641L157.371 578.387L144.342 494.548L94.8403 473.529L97.2696 552.469L97.44 552.641ZM188.783 653.675L266.107 661.68L231.491 591.354L161.348 584.316L188.489 653.551L188.783 653.675ZM230.795 707.93L309.325 716.231L269.093 666.689L268.784 666.751L191.831 658.778L229.418 707.321L230.795 707.93ZM569.165 612.419L491.331 668.078L528.499 697.928L603.285 644.547L569.165 612.419ZM636.245 539.611L570.945 610.843L605.096 643.003L667.796 574.627L636.245 539.611ZM685.731 456.365L637.777 537.786L669.174 572.614L715.147 494.376L685.731 456.365ZM660.477 319.925L710.814 361.572L715.797 278.388L715.642 277.717L665.568 238.458L660.477 319.925ZM391.895 133.662L399.941 172.017L494.704 179.101L483.068 125.08L391.895 133.662ZM391.23 131.353L481.938 122.818L455.617 77.91L372.738 99.3964L391.23 131.353ZM175.506 85.743L181.355 130.682L202.292 121.413L202.57 121.367L215.522 68.0952L175.506 85.743ZM140.721 165.682L157.479 147.503L134.701 115.406L103.475 149.141L140.721 165.682ZM126.949 188.214L139.328 167.663L101.927 150.998L78.5926 189.524L126.949 188.214ZM118.856 211.962L126.036 190.616L77.2153 191.849L63.3198 232.497L118.856 211.962ZM58.4918 278.544L65.5016 315.509L121.038 256.652L117.308 237.865L58.4918 278.466V278.544ZM144.078 489.274L146.632 396.228L111.831 381.779L95.1189 468.489L144.078 489.274ZM159.878 579.386L229.619 586.376L204.164 500.384L146.771 494.86L159.878 579.386ZM268.83 661.914L351.802 647.98L308.923 578.137L233.936 590.995L268.83 661.914ZM659.719 322.359L632.887 405.918L683.255 450.358L710.628 364.49L659.719 322.359ZM584.856 280.073L560.453 355.408L628.895 402.875L655.665 319.52L584.856 280.073ZM494.828 244.699L474.774 306.194L556.322 352.834L580.554 278.045L494.828 244.699ZM268.087 126.485L337.009 75.1638L303.198 61.8226L250.865 119.697L268.087 126.485ZM83.3276 349.807L130.957 274.877L122.121 258.961L66.0586 318.318L83.3276 349.807ZM203.112 495.499L189.185 400.472L148.953 396.774L146.4 490.038L203.112 495.499ZM232.095 586.47L306.633 573.768L267.778 489.445L206.532 500.134L232.095 586.47ZM354.231 647.45L436.63 612.216L385.659 545.338L311.213 577.373L354.231 647.45ZM439.756 615.992L357.171 651.366L400.715 702.032L485.544 665.878L439.756 615.992ZM631.757 408.071L584.809 487.51L634.342 534.306L682.388 452.714L631.757 408.071ZM559.339 357.515L516.94 429.105L581.219 484.296L627.997 405.122L559.339 357.515ZM473.706 308.3L438.982 366.706L513.257 426.047L555.378 355.018L473.706 308.3ZM396.321 218.859L382.146 261.942L470.518 303.978L490.402 243.279L396.321 218.859ZM294.764 159.815L298.648 178.851L395.129 172.048L387.253 134.521L294.764 159.815ZM284.938 141.683L293.991 157.552L386.324 132.32L368.219 101.035L284.938 141.683ZM283.561 139.717L366.471 99.2717L339.531 76.2402L270.006 128.014L283.561 139.717ZM200.28 194.127L201.982 126.75L182.33 135.395L200.28 194.127ZM192.203 203.88L123.421 213.273L121.734 232.794L192.203 203.88ZM146.106 288.499L132.643 276.578L84.7048 352.022L111.181 375.756L146.106 288.499ZM205.495 495.499L266.014 484.983L234.431 392.639L191.537 400.301L205.495 495.499ZM308.954 573.175L382.889 541.422L330.788 462.466L270.053 488.743L308.954 573.175ZM438.766 611.108L514.495 556.963L456.174 495.094L387.717 544.152L438.766 611.108ZM517.791 560.38L441.83 614.76L487.756 664.801L565.761 609.08L517.791 560.38ZM583.324 489.352L519.571 558.82L567.556 607.535L632.964 536.257L583.324 489.352ZM515.47 430.962L457.969 493.549L516.29 555.403L579.827 486.215L515.47 430.962ZM437.512 368.578L390.533 419.665L454.75 490.054L511.849 427.966L437.512 368.578ZM381.109 264.064L356.691 304.977L435.207 363.803L469.543 306.147L381.109 264.064ZM210.122 193.441L279.337 142.338L266.447 131.197L210.122 193.441ZM207.986 192.255L264.265 130.073L247.956 123.567L207.986 192.255ZM205.371 192.052L245.418 123.224L226.756 121.741L205.371 192.052ZM198.315 195.734L180.272 136.705L162.137 149.766L198.315 195.734ZM196.582 197.388L160.373 151.357L145.053 167.913L196.582 197.388ZM194.926 199.167L143.553 169.801L132.133 188.682L194.926 199.167ZM130.926 190.897L124.164 210.792L193.363 201.321L130.926 190.897ZM191.847 206.595L121.626 235.415L125.092 253.328L191.847 206.595ZM165.448 296.66L148.179 289.638L113.13 377.176L147.189 391.438L165.448 296.66ZM268.273 484.343L328.297 458.425L279.244 373.478L236.706 391.999L268.273 484.343ZM355.237 306.849L322.277 342.66L387.361 416.123L433.798 365.691L355.237 306.849ZM296.637 204.52L289.534 225.975L377.783 260.069L391.709 217.97L296.637 204.52ZM192.466 209.06L125.742 255.747L134.129 270.867L192.466 209.06ZM187.731 299.032L167.738 297.284L149.464 392.046L188.829 395.651L187.731 299.032ZM211.422 295.022L190.067 298.938L191.166 395.541L233.147 388.098L211.422 295.022ZM288.513 228.128L276.304 248.569L352.854 302.199L376.761 262.222L288.513 228.128ZM285.062 224.461L291.84 204.176L210.199 202.772L285.062 224.461ZM150.33 285.394L166.732 292.151L196.226 211.775L150.33 285.394ZM194.013 210.855L135.537 272.802L148.334 284.146L194.013 210.855ZM274.865 250.441L258.37 268.37L319.151 339.071L351.415 304.087L274.865 250.441ZM272.374 245.916L283.964 226.614L208.729 204.832L272.374 245.916ZM187.994 294.273L198.748 211.775L169.069 292.619L187.994 294.273ZM255.29 264.719L270.919 247.804L207.12 206.61L255.29 264.719ZM201.224 210.995L190.392 294.039L210.601 290.403L201.224 210.995ZM232.961 280.838L203.452 209.731L212.892 289.607L232.961 280.838ZM235.004 279.605L253.526 266.295L205.387 208.233L235.004 279.605ZM279.058 368.141L317.372 340.632L256.574 269.9L237 284.005L279.058 368.141ZM235.391 387.396L277.016 369.327L234.911 285.113L213.696 294.429L235.391 387.396ZM330.355 457.27L385.582 417.683L320.482 344.205L281.333 372.354L330.355 457.27ZM211.313 200.416L292.443 201.804L294.006 181.972L211.313 200.416ZM289.503 159.221L280.884 144.148L211.422 195.422L289.503 159.221ZM211.793 197.872L293.975 179.538L290.277 161.484L211.793 197.872ZM384.978 540.282L452.955 491.63L388.738 421.21L332.861 461.312L384.978 540.282ZM202.679 192.785L224.172 122.131L204.365 125.814L202.679 192.785ZM298.803 181.223L297.148 202.179L392.22 215.645L395.284 174.404L298.803 181.223ZM173.324 87.2409L136.45 113.799L159.32 145.989L179.112 131.696L173.324 87.2409ZM400.019 174.388L396.878 216.566L490.82 240.939L494.983 181.488L400.019 174.388ZM312.977 716.621L398.053 702.515L354.819 652.24L271.77 666.237L312.575 716.575L312.977 716.621ZM62.314 235.415L58.755 275.454L116.798 235.321L116.783 235.259L118.562 214.6L62.3603 235.306L62.314 235.415ZM218.23 66.8938L205.108 120.883L226.137 116.92L226.245 116.935L258.741 59.279L218.276 66.8779L218.23 66.8938ZM261.774 58.7018L228.845 117.138L248.234 118.667L248.497 118.776L300.211 61.5885L261.913 58.6859L261.774 58.7018ZM499.656 182.222L495.447 242.39L580.894 275.642L585.707 202.46L499.656 182.222ZM590.333 204.067L585.49 277.733L655.928 316.976L661.019 235.509L590.333 204.067ZM445.203 733.395L526.132 698.989L489.242 669.42L404.769 705.465L444.738 733.473L445.203 733.395ZM362.711 23.2031L307.453 58.4988L341.775 71.9337L341.991 72.1211L411.377 41.9432L363.562 23.2653L362.711 23.2031ZM414.518 43.176L343.972 73.8061L371.454 97.2899L453.466 76.0062L414.827 43.3006L414.518 43.176ZM487.911 125.143L499.687 179.787L585.289 199.947L570.681 133.569L487.911 125.143ZM441.396 734.02L402.201 706.557L402.108 706.588L317.805 720.632L359.446 747.018L361.256 747.205L441.396 734.02ZM159.676 676.941L225.039 705.418L188.566 658.435L187.947 658.372L123.498 630.551L155.359 672.993L159.676 676.941ZM115.281 619.675L95.6605 557.041L94.8557 556.698L49.8263 515.613L64.0004 570.788L65.9966 574.502L115.281 619.675ZM46.484 503.738L51.9464 435.924L51.4203 435.44L27.2497 390.97L17.0526 447.596L17.5168 450.077L46.484 503.738ZM24.2788 267.699L19.2651 323.186L53.8807 279.574L53.726 278.794L57.285 238.77L24.7276 266.389L24.2788 267.699ZM485.482 33.8137L420.475 41.8652L458.897 74.3992L459.207 74.6643L459.408 74.9919L533.699 73.7125L486.905 34.3598L485.482 33.8137ZM648.593 126.032L645.111 123.13L614.504 100.645L648.438 157.599L648.732 158.894L693.669 192.707L659.054 134.802L648.593 126.032ZM558.488 708.648L575.865 696.898L625.135 661.743L606.953 647.699L533.343 700.3L557.9 708.897L558.488 708.648ZM104.187 626.01L138.833 657.81L145.843 664.239L119.119 628.663L117.138 627.804L80.8055 594.506L104.187 626.01ZM30.9791 509.481L46.4686 538.238L59.3428 562.143L46.6542 512.711L45.2769 511.462L21.3853 467.194L30.9791 509.481ZM80.5734 148.096L48.1242 201.617L72.6816 190.507L72.8672 189.945L97.0994 149.844L80.6196 148.065L80.5734 148.096ZM243.716 30.568L242.478 31.1141L221.155 61.5571L261.65 53.8957L262.641 53.9737L299.577 20.0198L243.716 30.568ZM341.883 6.89709L314.881 14.9017L364.258 18.553L366.1 19.2708L412.398 9.1438L353.055 4.79059L341.883 6.89709ZM550.581 49.3705L543.06 46.4528L495.261 35.1866L540.523 73.2599L541.126 74.2742L600.252 91.0017L550.581 49.3705ZM560.917 712.736L486.255 744.474L410.216 757.02L361.396 752.011L361.101 751.98H361.086L281.209 743.444L211.901 713.204C211.886 713.204 211.886 713.204 211.886 713.188L157.309 681.107L157.077 680.998L100.844 629.38L62.3603 577.607L62.2366 577.482L26.6772 511.462C26.4916 511.119 26.4298 510.729 26.4143 510.354L13.0293 451.746L13.0136 451.684L12.9362 451.341V451.325L0.0619507 381.982L0 381.654L6.83972 306.459C6.87067 306.116 6.9787 305.788 7.13348 305.507L19.7294 266.404L40.9907 204.363L76.6737 145.412L124.256 93.9506L180.613 53.287L242.076 26.0898H242.106L242.261 26.0118L276.737 14.4025L276.939 14.3555C276.969 14.3555 277 14.3245 277.047 14.3245L352.792 0L424.916 5.28979L481.938 17.6793L482.155 17.7573C482.201 17.7729 482.248 17.7728 482.294 17.7884L552.051 44.8455L552.639 45.064V45.0795L552.995 45.22L554.14 46.1718L604.353 82.8097C604.368 82.8097 604.368 82.8096 604.368 82.8253L630.195 104.452L662.613 131.603L662.674 131.65L662.984 132.164L695.944 186.84L733.855 250.254L734.056 250.582L751.402 326.838L751.48 327.165L751.464 327.399L757.02 379.22L752.702 453.51L752.687 453.806L728.748 529.453L686.582 601.387L680.315 610.625L634.017 661.181L578.542 700.815L560.917 712.736Z" fill="url(#paint0_linear_972_54)"/>
<defs>
<linearGradient id="paint0_linear_972_54" x1="378.51" y1="0" x2="378.51" y2="757.02" gradientUnits="userSpaceOnUse">
<stop stop-color="#526ED3" stop-opacity="0.8"/>
<stop offset="1" stop-color="#526ED3" stop-opacity="0"/>
</linearGradient>
</defs>
</svg>
