<svg width="920" height="870" viewBox="520 50 920 870" fill="none" xmlns="http://www.w3.org/2000/svg">
<g opacity="0.4">
<path d="M1380.01 521.271L1379.99 521.567L1379.25 523.923L1382.44 546.253L1385.7 489.907L1383.21 466.533L1380.01 521.271ZM1122.75 140.756L1124.64 142.348L1160.42 150.789L1159.4 150.384L1114.18 132.86L1086.99 126.931L1122.75 140.756ZM938.38 124.715L941.598 124.965L952.105 121.844L911.486 129.521L909.49 130.208L938.38 124.715ZM1081.59 847.859L1079.92 848.561L1012.72 859.624L1043.49 862.792L1107.82 852.228L1081.59 847.859ZM1118.1 850.543L1188.07 820.833L1164.39 812.547L1164.19 812.688L1085.66 846.127L1115.11 851.026L1118.1 850.543ZM1315.99 709.437L1304.02 689.09L1242.13 756.639L1260.56 770.87L1262.39 769.574L1311.64 715.835L1315.99 709.437ZM1350.81 610.462L1305.66 687.264L1317.35 707.112L1357.76 638.315L1358.11 637.176L1350.81 610.462ZM1353.02 606.577L1352.94 606.827L1352.42 607.716L1359.41 633.057L1381.43 563.495L1381.74 558.111L1377.59 529.104L1353.02 606.577ZM1244.81 205.98L1249.92 209.74L1244.18 204.919L1244.81 205.98ZM1057.64 120.565L1054.16 120.315L1003.53 131.394L1050.67 149.713L1051.42 150.337L1114.23 142.55L1057.64 120.565ZM731.925 258.175L765.566 221.755L759.64 209.366L716.049 256.443L731.925 258.175ZM659.646 372.566L690.997 345.962L691.059 345.26L705.047 304.159L679.36 315.768L678.788 316.72L666.61 352.25L659.646 372.566ZM644.931 417.708L640.041 471.479L647.902 441.879L647.484 439.71L647.422 439.382L651.12 398.578L644.931 417.708ZM649.248 551.605L658.873 498.208L658.192 496.96L648.907 447.277L638.772 485.507L638.184 491.982L649.248 551.605ZM847.315 819.46L890.611 838.341L865.667 823.423L863.362 823.189L863.006 823.142L826.781 807.367L847.315 819.46ZM987.525 857.003L947.711 831.787L946.519 831.99L871.285 824.016L907.741 845.815L915.85 849.341L987.525 857.003ZM1353.62 394.209L1348.75 475.614L1348.74 475.91L1348.52 476.55L1375.58 516.028L1380.15 438.134L1379.51 435.372L1353.62 394.209ZM1339.11 322.931L1353.89 388.217L1353.97 388.545L1353.86 390.261L1377.93 428.444L1363.05 362.954L1339.11 322.931ZM1208.34 241.947L1208.53 242.274L1208.63 242.727L1275.2 266.226L1239.66 206.573L1238.13 205.293L1176.29 187.801L1208.34 241.947ZM1094.2 187.911L1120.77 233.271L1202.63 241.588L1170.3 186.943L1169.9 186.616L1094.2 187.911ZM937.312 167.672L938.179 168.016L992.183 133.469L938.643 129.506L937.389 129.755L899.231 164.77L937.312 167.672ZM809.682 190.829L850.054 172.978L851.246 172.744L871.718 143.518L816.568 167.86L815.919 168.344L809.682 190.829ZM767.469 220.304L806.108 192.405L806.882 192.061L812.855 170.544L761.419 207.603L767.469 220.304ZM682.455 619.044L728.258 660.816L725.86 583.062L725.69 583L687.577 548.484L681.96 618.124L682.455 619.044ZM753.141 734.31L818.905 762.818L792.104 694.567L731.941 668.821L752.166 733.42L753.141 734.31ZM1320.48 564.556L1320.42 564.728L1349.45 602.208L1375.32 520.693L1375.37 519.867L1347.64 479.359L1320.48 564.556ZM1299.13 345.291L1299.19 345.634L1299.16 346.196L1348.24 384.613L1331.5 310.635L1330.31 308.669L1282.94 273.03L1299.13 345.291ZM1223.84 311.852L1223.91 312.117L1293.8 343.184L1277.42 269.956L1277.11 269.425L1209.24 245.458L1223.84 311.852ZM652.188 439.148L661.89 491.077L695.159 430.815L695.113 430.737L687.886 393.195L652.296 438.04L652.188 439.148ZM714.115 465.362L714.069 465.315L696.506 433.265L662.586 494.729L662.695 495.337L687.035 540.151L714.115 465.362ZM688.583 543.007L726.479 577.304L743.067 491.312L716.018 467.063L688.537 542.929L688.583 543.007ZM730.858 663.203L790.789 688.949L777.76 605.11L728.258 584.092L730.688 663.032L730.858 663.203ZM822.201 764.238L899.525 772.243L864.909 701.916L794.766 694.879L821.907 764.113L822.201 764.238ZM864.213 818.492L942.743 826.794L902.511 777.252L902.202 777.314L825.249 769.34L862.836 817.884L864.213 818.492ZM1202.58 722.982L1124.75 778.64L1161.92 808.49L1236.7 755.11L1202.58 722.982ZM1269.66 650.174L1204.36 721.405L1238.51 753.565L1301.21 685.189L1269.66 650.174ZM1319.15 566.928L1271.19 648.348L1302.59 683.176L1348.56 604.939L1319.15 566.928ZM1293.9 430.488L1344.23 472.134L1349.21 388.95L1349.06 388.279L1298.99 349.02L1293.9 430.488ZM1025.31 244.225L1033.36 282.579L1128.12 289.663L1116.49 235.643L1025.31 244.225ZM1024.65 241.916L1115.36 233.38L1089.03 188.473L1006.16 209.959L1024.65 241.916ZM808.924 196.306L814.773 241.245L835.71 231.976L835.988 231.929L848.94 178.658L808.924 196.306ZM774.139 276.244L790.897 258.066L768.119 225.968L736.893 259.704L774.139 276.244ZM760.367 298.776L772.746 278.226L735.345 261.561L712.011 300.086L760.367 298.776ZM752.274 322.525L759.454 301.179L710.633 302.411L696.738 343.06L752.274 322.525ZM691.91 389.106L698.92 426.072L754.456 367.214L750.726 348.427L691.91 389.028V389.106ZM777.496 599.836L780.05 506.791L745.249 492.341L728.537 579.052L777.496 599.836ZM793.296 689.948L863.037 696.939L837.582 610.946L780.189 605.422L793.296 689.948ZM902.248 772.477L985.22 758.543L942.341 688.7L867.354 701.557L902.248 772.477ZM1293.14 432.922L1266.3 516.48L1316.67 560.92L1344.05 475.052L1293.14 432.922ZM1218.27 390.636L1193.87 465.971L1262.31 513.438L1289.08 430.082L1218.27 390.636ZM1128.25 355.262L1108.19 416.756L1189.74 463.396L1213.97 388.607L1128.25 355.262ZM901.505 237.047L970.426 185.726L936.616 172.385L884.283 230.259L901.505 237.047ZM716.746 460.369L764.375 385.439L755.539 369.523L699.477 428.881L716.746 460.369ZM836.53 606.062L822.603 511.035L782.371 507.337L779.818 600.601L836.53 606.062ZM865.513 697.032L940.051 684.331L901.196 600.008L839.95 610.696L865.513 697.032ZM987.649 758.012L1070.05 722.779L1019.08 655.901L944.631 687.935L987.649 758.012ZM1073.17 726.555L990.589 761.929L1034.13 812.594L1118.96 776.44L1073.17 726.555ZM1265.18 518.634L1218.23 598.073L1267.76 644.869L1315.81 563.276L1265.18 518.634ZM1192.76 468.077L1150.36 539.668L1214.64 594.858L1261.42 515.685L1192.76 468.077ZM1107.12 418.863L1072.4 477.268L1146.68 536.609L1188.8 465.581L1107.12 418.863ZM1029.74 329.422L1015.56 372.504L1103.94 414.541L1123.82 353.842L1029.74 329.422ZM928.182 270.377L932.066 289.414L1028.55 282.61L1020.67 245.083L928.182 270.377ZM918.356 252.245L927.409 268.115L1019.74 242.883L1001.64 211.597L918.356 252.245ZM916.979 250.279L999.889 209.834L972.949 186.803L903.424 238.576L916.979 250.279ZM833.698 304.69L835.4 237.312L815.748 245.957L833.698 304.69ZM825.621 314.442L756.839 323.836L755.152 343.356L825.621 314.442ZM779.524 399.062L766.061 387.14L718.123 462.585L744.599 486.318L779.524 399.062ZM838.913 606.062L899.432 595.545L867.849 503.202L824.955 510.863L838.913 606.062ZM942.372 683.738L1016.31 651.984L964.206 573.029L903.471 599.306L942.372 683.738ZM1072.18 721.671L1147.91 667.525L1089.59 605.656L1021.13 654.715L1072.18 721.671ZM1151.21 670.943L1075.25 725.322L1121.17 775.363L1199.18 719.642L1151.21 670.943ZM1216.74 599.914L1152.99 669.382L1200.97 718.097L1266.38 646.819L1216.74 599.914ZM1148.89 541.525L1091.39 604.111L1149.71 665.965L1213.24 596.778L1148.89 541.525ZM1070.93 479.141L1023.95 530.227L1088.17 600.616L1145.27 538.529L1070.93 479.141ZM1014.53 374.626L990.109 415.539L1068.62 474.366L1102.96 416.71L1014.53 374.626ZM843.54 304.003L912.755 252.901L899.865 241.76L843.54 304.003ZM841.404 302.817L897.683 240.636L881.374 234.129L841.404 302.817ZM838.789 302.615L878.836 233.786L860.174 232.304L838.789 302.615ZM831.733 306.297L813.69 247.268L795.555 260.328L831.733 306.297ZM830 307.951L793.791 261.92L778.471 278.475L830 307.951ZM828.344 309.73L776.971 280.364L765.551 299.244L828.344 309.73ZM764.344 301.46L757.581 321.355L826.781 311.883L764.344 301.46ZM825.265 317.157L755.044 345.978L758.51 363.891L825.265 317.157ZM798.866 407.222L781.597 400.201L746.548 487.738L780.607 502L798.866 407.222ZM901.691 594.905L961.715 568.987L912.662 484.04L870.124 502.562L901.691 594.905ZM988.655 417.412L955.695 453.222L1020.78 526.685L1067.22 476.254L988.655 417.412ZM930.055 315.082L922.952 336.537L1011.2 370.632L1025.13 328.532L930.055 315.082ZM825.884 319.623L759.16 366.309L767.547 381.429L825.884 319.623ZM821.149 409.594L801.156 407.847L782.881 502.609L822.247 506.213L821.149 409.594ZM844.839 405.584L823.485 409.501L824.584 506.104L866.565 498.661L844.839 405.584ZM921.931 338.69L909.722 359.131L986.272 412.762L1010.18 372.785L921.931 338.69ZM918.48 335.023L925.258 314.739L843.617 313.334L918.48 335.023ZM783.748 395.956L800.15 402.713L829.644 322.338L783.748 395.956ZM827.431 321.417L768.955 383.364L781.752 394.708L827.431 321.417ZM908.283 361.004L891.788 378.933L952.569 449.634L984.833 414.65L908.283 361.004ZM905.792 356.479L917.381 337.177L842.147 315.394L905.792 356.479ZM821.412 404.835L832.166 322.338L802.487 403.181L821.412 404.835ZM888.708 375.281L904.337 358.367L840.538 317.173L888.708 375.281ZM834.642 321.558L823.81 404.601L844.019 400.965L834.642 321.558ZM866.379 391.4L836.87 320.293L846.31 400.169L866.379 391.4ZM868.422 390.167L886.944 376.857L838.805 318.796L868.422 390.167ZM912.476 478.704L950.79 451.194L889.992 380.462L870.418 394.568L912.476 478.704ZM868.809 497.959L910.434 479.889L868.329 395.676L847.114 404.991L868.809 497.959ZM963.773 567.833L1019 528.246L953.9 454.767L914.751 482.917L963.773 567.833ZM844.731 310.978L925.861 312.367L927.424 292.534L844.731 310.978ZM922.921 269.784L914.302 254.711L844.839 305.985L922.921 269.784ZM845.211 308.435L927.393 290.1L923.695 272.047L845.211 308.435ZM1018.4 650.845L1086.37 602.192L1022.16 531.772L966.279 571.874L1018.4 650.845ZM836.097 303.348L857.59 232.694L837.783 236.376L836.097 303.348ZM932.221 291.785L930.565 312.741L1025.64 326.207L1028.7 284.967L932.221 291.785ZM806.742 197.803L769.868 224.361L792.738 256.552L812.53 242.259L806.742 197.803ZM1033.44 284.951L1030.3 327.128L1124.24 351.501L1128.4 292.051L1033.44 284.951ZM946.395 827.184L1031.47 813.078L988.237 762.802L905.188 776.799L945.993 827.137L946.395 827.184ZM695.732 345.978L692.173 386.017L750.216 345.884L750.201 345.822L751.98 325.162L695.778 345.868L695.732 345.978ZM851.648 177.456L838.526 231.445L859.555 227.482L859.663 227.498L892.159 169.841L851.694 177.44L851.648 177.456ZM895.192 169.264L862.263 227.701L881.652 229.23L881.915 229.339L933.629 172.151L895.331 169.248L895.192 169.264ZM1133.07 292.784L1128.86 352.952L1214.31 386.204L1219.12 313.022L1133.07 292.784ZM1223.75 314.629L1218.91 388.295L1289.35 427.539L1294.44 346.071L1223.75 314.629ZM1078.62 843.958L1159.55 809.552L1122.66 779.982L1038.19 816.027L1078.16 844.036L1078.62 843.958ZM996.129 133.766L940.871 169.061L975.193 182.496L975.409 182.684L1044.79 152.506L996.98 133.828L996.129 133.766ZM1047.94 153.738L977.39 184.369L1004.87 207.852L1086.88 186.569L1048.25 153.863L1047.94 153.738ZM1121.33 235.705L1133.1 290.35L1218.71 310.51L1204.1 244.131L1121.33 235.705ZM1074.81 844.582L1035.62 817.119L1035.53 817.151L951.223 831.194L992.864 857.58L994.674 857.767L1074.81 844.582ZM793.094 787.503L858.457 815.98L821.984 768.997L821.365 768.935L756.916 741.113L788.777 783.555L793.094 787.503ZM748.699 730.237L729.078 667.603L728.274 667.26L683.244 626.175L697.418 681.35L699.415 685.064L748.699 730.237ZM679.902 614.301L685.364 546.487L684.838 546.003L660.668 501.532L650.471 558.158L650.935 560.639L679.902 614.301ZM657.697 378.262L652.683 433.749L687.299 390.136L687.144 389.356L690.703 349.332L658.146 376.951L657.697 378.262ZM1118.9 144.376L1053.89 152.428L1092.32 184.962L1092.62 185.227L1092.83 185.554L1167.12 184.275L1120.32 144.922L1118.9 144.376ZM1282.01 236.595L1278.53 233.692L1247.92 211.207L1281.86 268.161L1282.15 269.456L1327.09 303.27L1292.47 245.364L1282.01 236.595ZM1191.91 819.21L1209.28 807.461L1258.55 772.305L1240.37 758.262L1166.76 810.862L1191.32 819.46L1191.91 819.21ZM737.605 736.572L772.251 768.373L779.26 774.802L752.537 739.225L750.556 738.367L714.223 705.068L737.605 736.572ZM664.397 620.043L679.887 648.801L692.761 672.706L680.072 623.273L678.695 622.025L654.803 577.757L664.397 620.043ZM713.991 258.658L681.542 312.179L706.1 301.07L706.285 300.508L730.517 260.406L714.038 258.627L713.991 258.658ZM877.134 141.13L875.896 141.677L854.573 172.12L895.068 164.458L896.058 164.536L932.995 130.582L877.134 141.13ZM975.301 117.46L948.299 125.464L997.676 129.116L999.518 129.833L1045.82 119.706L986.473 115.353L975.301 117.46ZM1184 159.933L1176.48 157.015L1128.68 145.749L1173.94 183.822L1174.54 184.837L1233.67 201.564L1184 159.933ZM1194.34 823.298L1119.67 855.037L1043.63 867.582L994.813 862.573L994.519 862.542H994.504L914.627 854.007L845.319 823.767C845.304 823.767 845.304 823.767 845.304 823.751L790.727 791.669L790.495 791.56L734.262 739.943L695.778 688.169L695.655 688.044L660.095 622.025C659.91 621.681 659.848 621.291 659.832 620.917L646.447 562.309L646.432 562.246L646.354 561.903V561.888L633.48 492.544L633.418 492.216L640.258 417.022C640.289 416.678 640.397 416.351 640.551 416.07L653.147 376.967L674.409 314.926L710.092 255.975L757.674 204.513L814.031 163.85L875.493 136.652H875.524L875.679 136.574L910.155 124.965L910.357 124.918C910.387 124.918 910.418 124.887 910.465 124.887L986.21 110.562L1058.33 115.852L1115.36 128.242L1115.57 128.32C1115.62 128.335 1115.67 128.335 1115.71 128.351L1185.47 155.408L1186.06 155.626V155.642L1186.41 155.783L1187.56 156.734L1237.77 193.372C1237.79 193.372 1237.79 193.372 1237.79 193.388L1263.61 215.015L1296.03 242.165L1296.09 242.212L1296.4 242.727L1329.36 297.403L1367.27 360.817L1367.47 361.144L1384.82 437.4L1384.9 437.728L1384.88 437.962L1390.44 489.782L1386.12 564.072L1386.1 564.369L1362.17 640.016L1320 711.95L1313.73 721.187L1267.43 771.743L1211.96 811.377L1194.34 823.298Z" fill="url(#paint0_linear_962_563704)"/>
<g filter="url(#filter1_d_962_563704)">
<ellipse cx="254.565" cy="521.838" rx="254.565" ry="521.838" transform="matrix(-0.707107 -0.707107 -0.707107 0.707107 1562 299.009)" stroke="url(#paint1_linear_962_563704)" stroke-opacity="0.16" stroke-width="4.28906" shape-rendering="crispEdges"/>
</g>
<g filter="url(#filter2_d_962_563704)">
<ellipse cx="185.663" cy="463.565" rx="185.663" ry="463.565" transform="matrix(0.258819 -0.965926 -0.965926 -0.258819 1395.69 862.587)" stroke="url(#paint2_linear_962_563704)" stroke-width="4.28906" shape-rendering="crispEdges"/>
</g>
</g>
<defs>
<filter id="filter0_f_962_563704" x="-230.797" y="-755.828" width="2487.62" height="2487.62" filterUnits="userSpaceOnUse" color-interpolation-filters="sRGB">
<feFlood flood-opacity="0" result="BackgroundImageFix"/>
<feBlend mode="normal" in="SourceGraphic" in2="BackgroundImageFix" result="shape"/>
<feGaussianBlur stdDeviation="428.906" result="effect1_foregroundBlur_962_563704"/>
</filter>
<filter id="filter1_d_962_563704" x="583.049" y="58.0483" width="859.902" height="859.903" filterUnits="userSpaceOnUse" color-interpolation-filters="sRGB">
<feFlood flood-opacity="0" result="BackgroundImageFix"/>
<feColorMatrix in="SourceAlpha" type="matrix" values="0 0 0 0 0 0 0 0 0 0 0 0 0 0 0 0 0 0 127 0" result="hardAlpha"/>
<feOffset/>
<feGaussianBlur stdDeviation="8.57812"/>
<feComposite in2="hardAlpha" operator="out"/>
<feColorMatrix type="matrix" values="0 0 0 0 0.541346 0 0 0 0 0.839471 0 0 0 0 1 0 0 0 0.24 0"/>
<feBlend mode="normal" in2="BackgroundImageFix" result="effect1_dropShadow_962_563704"/>
<feBlend mode="normal" in="SourceGraphic" in2="effect1_dropShadow_962_563704" result="shape"/>
</filter>
<filter id="filter2_d_962_563704" x="526.29" y="328.178" width="939.36" height="470.186" filterUnits="userSpaceOnUse" color-interpolation-filters="sRGB">
<feFlood flood-opacity="0" result="BackgroundImageFix"/>
<feColorMatrix in="SourceAlpha" type="matrix" values="0 0 0 0 0 0 0 0 0 0 0 0 0 0 0 0 0 0 127 0" result="hardAlpha"/>
<feOffset/>
<feGaussianBlur stdDeviation="8.57812"/>
<feComposite in2="hardAlpha" operator="out"/>
<feColorMatrix type="matrix" values="0 0 0 0 0.321569 0 0 0 0 0.431373 0 0 0 0 0.827451 0 0 0 0.24 0"/>
<feBlend mode="normal" in2="BackgroundImageFix" result="effect1_dropShadow_962_563704"/>
<feBlend mode="normal" in="SourceGraphic" in2="effect1_dropShadow_962_563704" result="shape"/>
</filter>
  <linearGradient id="paint0_linear_962_563704" x1="1011.93" y1="110.562" x2="1011.93" y2="867.582" gradientUnits="userSpaceOnUse">
    <stop stop-color="#0c0e88" stop-opacity="0.8"/>
    <stop offset="1" stop-color="#0c0e88" stop-opacity="0"/>
  </linearGradient>
  <linearGradient id="paint1_linear_962_563704" x1="394.833" y1="132.879" x2="106.715" y2="264.807" gradientUnits="userSpaceOnUse">
    <stop stop-color="#0c0e88" stop-opacity="0.8"/>
    <stop offset="1" stop-color="#0c0e88" stop-opacity="0"/>
  </linearGradient>
  <linearGradient id="paint2_linear_962_563704" x1="360.543" y1="267.445" x2="68.0208" y2="242.233" gradientUnits="userSpaceOnUse">
    <stop stop-color="#0c0e88" stop-opacity="0.8"/>
    <stop offset="1" stop-color="#0c0e88" stop-opacity="0"/>
  </linearGradient>
</defs>
</svg>
