<svg width="44" height="44" viewBox="0 0 44 44" fill="none" xmlns="http://www.w3.org/2000/svg">
<path d="M18.3333 38.5V14.6667C18.3333 14.1804 18.1402 13.7141 17.7964 13.3703C17.4525 13.0265 16.9862 12.8333 16.5 12.8333H7.33333C6.8471 12.8333 6.38079 13.0265 6.03697 13.3703C5.69315 13.7141 5.5 14.1804 5.5 14.6667V36.6667C5.5 37.1529 5.69315 37.6192 6.03697 37.963C6.38079 38.3068 6.8471 38.5 7.33333 38.5H29.3333C29.8196 38.5 30.2859 38.3068 30.6297 37.963C30.9735 37.6192 31.1667 37.1529 31.1667 36.6667V27.5C31.1667 27.0138 30.9735 26.5475 30.6297 26.2036C30.2859 25.8598 29.8196 25.6667 29.3333 25.6667H5.5M27.5 5.5H36.6667C37.6792 5.5 38.5 6.32081 38.5 7.33333V16.5C38.5 17.5125 37.6792 18.3333 36.6667 18.3333H27.5C26.4875 18.3333 25.6667 17.5125 25.6667 16.5V7.33333C25.6667 6.32081 26.4875 5.5 27.5 5.5Z" stroke="white" stroke-width="4" stroke-linecap="round" stroke-linejoin="round"/>
</svg>
