<svg width="16" height="16" viewBox="0 0 16 16" fill="none" xmlns="http://www.w3.org/2000/svg">
<path d="M6.05359 1.85851C7.35536 1.82581 8.64439 1.82581 9.94616 1.85851L9.98523 1.85949C11.0018 1.88501 11.8199 1.90548 12.4755 2.01964C13.1616 2.13916 13.7192 2.36813 14.1903 2.84093C14.6596 3.31198 14.8885 3.86202 15.0057 4.53722C15.1174 5.18011 15.1341 5.97843 15.1551 6.96691L15.1561 7.00597C15.1703 7.67002 15.1703 8.3302 15.1561 8.99425L15.1551 9.03331C15.1341 10.0217 15.1173 10.8201 15.0057 11.463C14.8885 12.1382 14.6596 12.6882 14.1903 13.1593C13.7191 13.6322 13.1617 13.862 12.4755 13.9816C11.8199 14.0957 11.0018 14.1162 9.98523 14.1417L9.94616 14.1427C8.6444 14.1754 7.35535 14.1754 6.05359 14.1427L6.01452 14.1417C4.99803 14.1162 4.17982 14.0957 3.52429 13.9816C2.83796 13.862 2.27971 13.6323 1.80847 13.1593C1.33934 12.6883 1.11125 12.1381 0.994016 11.463C0.882412 10.8201 0.865664 10.0217 0.844602 9.03331L0.843626 8.99425C0.829469 8.3302 0.829468 7.67002 0.843626 7.00597L0.844602 6.96691C0.865665 5.97843 0.882397 5.18011 0.994016 4.53722C1.11126 3.86209 1.33931 3.31195 1.80847 2.84093C2.2797 2.36791 2.83799 2.13917 3.52429 2.01964C4.17984 1.90548 4.99797 1.88501 6.01452 1.85949L6.05359 1.85851ZM11.7635 5.41222C11.623 5.17473 11.3166 5.09609 11.079 5.23644L9.11706 6.3966C8.55446 6.72919 8.25514 6.83312 7.99988 6.83312C7.74461 6.83311 7.44529 6.72919 6.88269 6.3966L4.92077 5.23644C4.68316 5.09612 4.37675 5.17473 4.2362 5.41222C4.09566 5.64992 4.17428 5.95723 4.41199 6.09777L6.3739 7.25695C6.95431 7.60008 7.45507 7.83311 7.99988 7.83312C8.5448 7.83312 9.04626 7.6002 9.62683 7.25695L11.5878 6.09777C11.8255 5.95723 11.9041 5.64992 11.7635 5.41222Z" fill="#1A1D2E"/>
</svg>
