<svg width="16" height="16" viewBox="0 0 16 16" fill="none" xmlns="http://www.w3.org/2000/svg">
<path d="M6.05359 1.85833C7.35536 1.82563 8.64439 1.82562 9.94616 1.85833L9.98523 1.8593C11.0018 1.88483 11.8199 1.90529 12.4755 2.01946C13.1616 2.13897 13.7192 2.36794 14.1903 2.84075C14.6596 3.3118 14.8885 3.86183 15.0057 4.53704C15.1174 5.17992 15.1341 5.97825 15.1551 6.96673L15.1561 7.00579C15.1703 7.66984 15.1703 8.33002 15.1561 8.99407L15.1551 9.03313C15.1341 10.0215 15.1173 10.82 15.0057 11.4628C14.8885 12.138 14.6596 12.6881 14.1903 13.1591C13.7191 13.632 13.1617 13.8619 12.4755 13.9814C11.8199 14.0955 11.0018 14.116 9.98523 14.1415L9.94616 14.1425C8.6444 14.1752 7.35535 14.1752 6.05359 14.1425L6.01452 14.1415C4.99803 14.116 4.17982 14.0955 3.52429 13.9814C2.83796 13.8618 2.27971 13.6321 1.80847 13.1591C1.33934 12.6881 1.11125 12.1379 0.994016 11.4628C0.882412 10.82 0.865664 10.0216 0.844602 9.03313L0.843626 8.99407C0.829469 8.33002 0.829468 7.66984 0.843626 7.00579L0.844602 6.96673C0.865665 5.97825 0.882397 5.17992 0.994016 4.53704C1.11126 3.86191 1.33931 3.31177 1.80847 2.84075C2.2797 2.36773 2.83799 2.13899 3.52429 2.01946C4.17984 1.90529 4.99797 1.88483 6.01452 1.8593L6.05359 1.85833ZM11.7635 5.41204C11.623 5.17455 11.3166 5.09591 11.079 5.23626L9.11706 6.39641C8.55446 6.729 8.25514 6.83294 7.99988 6.83294C7.74461 6.83293 7.44529 6.72901 6.88269 6.39641L4.92077 5.23626C4.68316 5.09593 4.37675 5.17455 4.2362 5.41204C4.09566 5.64974 4.17428 5.95704 4.41199 6.09758L6.3739 7.25676C6.95431 7.5999 7.45507 7.83293 7.99988 7.83294C8.5448 7.83294 9.04626 7.60002 9.62683 7.25676L11.5878 6.09758C11.8255 5.95704 11.9041 5.64974 11.7635 5.41204Z" fill="white"/>
</svg>
