<svg width="20" height="20" viewBox="0 0 20 20" fill="none" xmlns="http://www.w3.org/2000/svg">
<path d="M11.6663 3.41634L9.99967 4.99967M4.24967 6.66634L1.83301 5.99967M4.99967 9.99968L3.41634 11.6663M5.99967 1.83301L6.66634 4.24967M7.53051 8.07467C7.49819 7.99855 7.48936 7.91451 7.50514 7.83333C7.52092 7.75216 7.56059 7.67754 7.61907 7.61907C7.67754 7.56059 7.75215 7.52092 7.83333 7.50514C7.91451 7.48936 7.99855 7.49819 8.07467 7.53051L17.2413 11.2805C17.3229 11.314 17.3918 11.3725 17.438 11.4476C17.4842 11.5227 17.5055 11.6105 17.4986 11.6984C17.4918 11.7863 17.4572 11.8698 17.3999 11.9368C17.3426 12.0038 17.2655 12.0509 17.1797 12.0713L13.5555 12.9388C13.4059 12.9746 13.2691 13.051 13.1603 13.1597C13.0514 13.2684 12.9748 13.4051 12.9388 13.5547L12.0722 17.1797C12.052 17.2658 12.0049 17.3432 11.9378 17.4007C11.8707 17.4583 11.787 17.493 11.6989 17.4999C11.6107 17.5068 11.5227 17.4854 11.4475 17.4389C11.3723 17.3925 11.3138 17.3233 11.2805 17.2413L7.53051 8.07467Z" stroke="white" stroke-width="1.5" stroke-linecap="round" stroke-linejoin="round"/>
</svg>
