<svg width="174" height="41" viewBox="0 0 174 41" fill="none" xmlns="http://www.w3.org/2000/svg">
<rect y="20.2451" width="28.6316" height="28.6316" rx="10.5263" transform="rotate(-45 0 20.2451)" fill="white"/>
<g filter="url(#filter0_i_962_568095)">
<path d="M12.9405 19.8664H15.6984C16.0071 19.8664 16.2457 19.7962 16.4142 19.6558C16.5896 19.5155 16.6773 19.312 16.6773 19.0453C16.6773 18.7787 16.5896 18.5751 16.4142 18.4348C16.2457 18.2944 16.0071 18.2243 15.6984 18.2243H12.5931L13.6984 17.0874V24.3506H11.2457V16.4558H16.0668C16.6773 16.4558 17.2142 16.5646 17.6773 16.7822C18.1405 16.9997 18.5019 17.3015 18.7615 17.6874C19.0212 18.0734 19.151 18.526 19.151 19.0453C19.151 19.5506 19.0212 19.9997 18.7615 20.3927C18.5019 20.7787 18.1405 21.0804 17.6773 21.298C17.2142 21.5085 16.6773 21.6137 16.0668 21.6137H12.9405V19.8664ZM13.9931 20.6558H16.7194L19.4352 24.3506H16.6247L13.9931 20.6558ZM27.6487 22.6032L26.9434 22.7506V16.4558H29.3224V24.3506H26.2487L22.0066 18.0558L22.7013 17.9085V24.3506H20.3329V16.4558H23.5013L27.6487 22.6032Z" fill="black"/>
</g>
<path d="M46.712 19.6331H49.856C50.208 19.6331 50.48 19.5531 50.672 19.3931C50.872 19.2331 50.972 19.0011 50.972 18.6971C50.972 18.3931 50.872 18.1611 50.672 18.0011C50.48 17.8411 50.208 17.7611 49.856 17.7611H46.316L47.576 16.4651V24.7451H44.78V15.7451H50.276C50.972 15.7451 51.584 15.8691 52.112 16.1171C52.64 16.3651 53.052 16.7091 53.348 17.1491C53.644 17.5891 53.792 18.1051 53.792 18.6971C53.792 19.2731 53.644 19.7851 53.348 20.2331C53.052 20.6731 52.64 21.0171 52.112 21.2651C51.584 21.5051 50.972 21.6251 50.276 21.6251H46.712V19.6331ZM47.912 20.5331H51.02L54.116 24.7451H50.912L47.912 20.5331ZM60.8224 24.7451L60.4984 22.2971L60.8344 21.3131L60.4984 20.3411L60.8224 17.8691H63.6784L63.2224 21.3011L63.6784 24.7451H60.8224ZM61.4344 21.3131C61.3384 22.0411 61.1264 22.6811 60.7984 23.2331C60.4784 23.7771 60.0624 24.2011 59.5504 24.5051C59.0464 24.8011 58.4664 24.9491 57.8104 24.9491C57.1464 24.9491 56.5584 24.7971 56.0464 24.4931C55.5344 24.1891 55.1344 23.7651 54.8464 23.2211C54.5664 22.6691 54.4264 22.0331 54.4264 21.3131C54.4264 20.5771 54.5664 19.9371 54.8464 19.3931C55.1344 18.8411 55.5344 18.4171 56.0464 18.1211C56.5584 17.8171 57.1464 17.6651 57.8104 17.6651C58.4664 17.6651 59.0464 17.8131 59.5504 18.1091C60.0624 18.4051 60.4824 18.8291 60.8104 19.3811C61.1384 19.9251 61.3464 20.5691 61.4344 21.3131ZM57.1984 21.3131C57.1984 21.6171 57.2584 21.8851 57.3784 22.1171C57.5064 22.3491 57.6824 22.5331 57.9064 22.6691C58.1304 22.8051 58.3864 22.8731 58.6744 22.8731C58.9704 22.8731 59.2544 22.8051 59.5264 22.6691C59.7984 22.5331 60.0384 22.3491 60.2464 22.1171C60.4544 21.8851 60.6064 21.6171 60.7024 21.3131C60.6064 21.0091 60.4544 20.7411 60.2464 20.5091C60.0384 20.2691 59.7984 20.0811 59.5264 19.9451C59.2544 19.8091 58.9704 19.7411 58.6744 19.7411C58.3864 19.7411 58.1304 19.8091 57.9064 19.9451C57.6824 20.0811 57.5064 20.2691 57.3784 20.5091C57.2584 20.7411 57.1984 21.0091 57.1984 21.3131ZM73.3265 17.8691V26.7251H70.5785V22.7291L70.6865 22.1171V20.0171L70.5785 19.7051V17.8691H73.3265ZM71.4185 21.3131C71.3225 22.0411 71.1105 22.6811 70.7825 23.2331C70.4625 23.7771 70.0465 24.2011 69.5345 24.5051C69.0305 24.8011 68.4545 24.9491 67.8065 24.9491C67.1345 24.9491 66.5425 24.7971 66.0305 24.4931C65.5265 24.1891 65.1305 23.7651 64.8425 23.2211C64.5545 22.6691 64.4105 22.0331 64.4105 21.3131C64.4105 20.5771 64.5545 19.9371 64.8425 19.3931C65.1305 18.8411 65.5265 18.4171 66.0305 18.1211C66.5425 17.8171 67.1345 17.6651 67.8065 17.6651C68.4545 17.6651 69.0305 17.8131 69.5345 18.1091C70.0465 18.4051 70.4665 18.8291 70.7945 19.3811C71.1225 19.9251 71.3305 20.5691 71.4185 21.3131ZM67.1945 21.3131C67.1945 21.6171 67.2545 21.8851 67.3745 22.1171C67.5025 22.3491 67.6745 22.5331 67.8905 22.6691C68.1145 22.8051 68.3705 22.8731 68.6585 22.8731C68.9625 22.8731 69.2505 22.8051 69.5225 22.6691C69.7945 22.5331 70.0305 22.3491 70.2305 22.1171C70.4385 21.8851 70.5905 21.6171 70.6865 21.3131C70.5905 21.0091 70.4385 20.7411 70.2305 20.5091C70.0305 20.2691 69.7945 20.0811 69.5225 19.9451C69.2505 19.8091 68.9625 19.7411 68.6585 19.7411C68.3705 19.7411 68.1145 19.8091 67.8905 19.9451C67.6745 20.0811 67.5025 20.2691 67.3745 20.5091C67.2545 20.7411 67.1945 21.0091 67.1945 21.3131ZM80.7091 24.7451L80.3851 22.2971L80.7211 21.3131L80.3851 20.3411L80.7091 17.8691H83.5651L83.1091 21.3011L83.5651 24.7451H80.7091ZM81.3211 21.3131C81.2251 22.0411 81.0131 22.6811 80.6851 23.2331C80.3651 23.7771 79.9491 24.2011 79.4371 24.5051C78.9331 24.8011 78.3531 24.9491 77.6971 24.9491C77.0331 24.9491 76.4451 24.7971 75.9331 24.4931C75.4211 24.1891 75.0211 23.7651 74.7331 23.2211C74.4531 22.6691 74.3131 22.0331 74.3131 21.3131C74.3131 20.5771 74.4531 19.9371 74.7331 19.3931C75.0211 18.8411 75.4211 18.4171 75.9331 18.1211C76.4451 17.8171 77.0331 17.6651 77.6971 17.6651C78.3531 17.6651 78.9331 17.8131 79.4371 18.1091C79.9491 18.4051 80.3691 18.8291 80.6971 19.3811C81.0251 19.9251 81.2331 20.5691 81.3211 21.3131ZM77.0851 21.3131C77.0851 21.6171 77.1451 21.8851 77.2651 22.1171C77.3931 22.3491 77.5691 22.5331 77.7931 22.6691C78.0171 22.8051 78.2731 22.8731 78.5611 22.8731C78.8571 22.8731 79.1411 22.8051 79.4131 22.6691C79.6851 22.5331 79.9251 22.3491 80.1331 22.1171C80.3411 21.8851 80.4931 21.6171 80.5891 21.3131C80.4931 21.0091 80.3411 20.7411 80.1331 20.5091C79.9251 20.2691 79.6851 20.0811 79.4131 19.9451C79.1411 19.8091 78.8571 19.7411 78.5611 19.7411C78.2731 19.7411 78.0171 19.8091 77.7931 19.9451C77.5691 20.0811 77.3931 20.2691 77.2651 20.5091C77.1451 20.7411 77.0851 21.0091 77.0851 21.3131ZM84.3195 17.8691H87.0675L87.5355 20.7131V24.7451H84.7875V20.2931L84.3195 17.8691ZM89.8515 17.6651C90.4915 17.6651 91.0355 17.7971 91.4835 18.0611C91.9315 18.3251 92.2715 18.7011 92.5035 19.1891C92.7435 19.6691 92.8635 20.2331 92.8635 20.8811V24.7451H90.1155V21.2771C90.1155 20.8291 90.0075 20.4851 89.7915 20.2451C89.5835 20.0051 89.2835 19.8851 88.8915 19.8851C88.6115 19.8851 88.3675 19.9491 88.1595 20.0771C87.9595 20.2051 87.8035 20.3851 87.6915 20.6171C87.5875 20.8491 87.5355 21.1291 87.5355 21.4571L86.7075 21.0251C86.8115 20.2811 87.0115 19.6611 87.3075 19.1651C87.6115 18.6691 87.9835 18.2971 88.4235 18.0491C88.8635 17.7931 89.3395 17.6651 89.8515 17.6651ZM95.1675 17.6651C95.8075 17.6651 96.3515 17.7971 96.7995 18.0611C97.2555 18.3251 97.5995 18.7011 97.8315 19.1891C98.0715 19.6691 98.1915 20.2331 98.1915 20.8811V24.7451H95.4435V21.2771C95.4435 20.8291 95.3355 20.4851 95.1195 20.2451C94.9115 20.0051 94.6115 19.8851 94.2195 19.8851C93.9395 19.8851 93.6955 19.9491 93.4875 20.0771C93.2875 20.2051 93.1315 20.3851 93.0195 20.6171C92.9155 20.8491 92.8635 21.1291 92.8635 21.4571L92.0355 21.0251C92.1395 20.2811 92.3395 19.6611 92.6355 19.1651C92.9395 18.6691 93.3075 18.2971 93.7395 18.0491C94.1795 17.7931 94.6555 17.6651 95.1675 17.6651ZM99.3506 15.5051H102.099V24.7451H99.3506V15.5051ZM103.358 17.7371L104.738 18.0251L106.106 17.7371V24.7451H103.358V17.7371ZM104.738 17.2811C104.274 17.2811 103.898 17.1651 103.61 16.9331C103.322 16.7011 103.178 16.3891 103.178 15.9971C103.178 15.5971 103.322 15.2811 103.61 15.0491C103.898 14.8171 104.274 14.7011 104.738 14.7011C105.218 14.7011 105.598 14.8171 105.878 15.0491C106.166 15.2811 106.31 15.5971 106.31 15.9971C106.31 16.3891 106.166 16.7011 105.878 16.9331C105.598 17.1651 105.218 17.2811 104.738 17.2811ZM118.768 22.7531L117.964 22.9211V15.7451H120.676V24.7451H117.172L112.336 17.5691L113.128 17.4011V24.7451H110.428V15.7451H114.04L118.768 22.7531ZM128.1 24.7451L127.776 22.2971L128.112 21.3131L127.776 20.3411L128.1 17.8691H130.956L130.5 21.3011L130.956 24.7451H128.1ZM128.712 21.3131C128.616 22.0411 128.404 22.6811 128.076 23.2331C127.756 23.7771 127.34 24.2011 126.828 24.5051C126.324 24.8011 125.744 24.9491 125.088 24.9491C124.424 24.9491 123.836 24.7971 123.324 24.4931C122.812 24.1891 122.412 23.7651 122.124 23.2211C121.844 22.6691 121.704 22.0331 121.704 21.3131C121.704 20.5771 121.844 19.9371 122.124 19.3931C122.412 18.8411 122.812 18.4171 123.324 18.1211C123.836 17.8171 124.424 17.6651 125.088 17.6651C125.744 17.6651 126.324 17.8131 126.828 18.1091C127.34 18.4051 127.76 18.8291 128.088 19.3811C128.416 19.9251 128.624 20.5691 128.712 21.3131ZM124.476 21.3131C124.476 21.6171 124.536 21.8851 124.656 22.1171C124.784 22.3491 124.96 22.5331 125.184 22.6691C125.408 22.8051 125.664 22.8731 125.952 22.8731C126.248 22.8731 126.532 22.8051 126.804 22.6691C127.076 22.5331 127.316 22.3491 127.524 22.1171C127.732 21.8851 127.884 21.6171 127.98 21.3131C127.884 21.0091 127.732 20.7411 127.524 20.5091C127.316 20.2691 127.076 20.0811 126.804 19.9451C126.532 19.8091 126.248 19.7411 125.952 19.7411C125.664 19.7411 125.408 19.8091 125.184 19.9451C124.96 20.0811 124.784 20.2691 124.656 20.5091C124.536 20.7411 124.476 21.0091 124.476 21.3131ZM131.878 24.7451V22.8491L136.414 19.5131L138.382 19.8131H131.902V17.8691H139.426V19.7651L134.89 23.1011L133.222 22.8011H139.45V24.7451H131.878ZM144.554 24.9491C143.666 24.9491 142.886 24.7971 142.214 24.4931C141.542 24.1891 141.018 23.7651 140.642 23.2211C140.266 22.6691 140.078 22.0331 140.078 21.3131C140.078 20.5771 140.266 19.9371 140.642 19.3931C141.018 18.8411 141.542 18.4171 142.214 18.1211C142.886 17.8171 143.67 17.6651 144.566 17.6651C145.454 17.6651 146.234 17.8171 146.906 18.1211C147.578 18.4171 148.098 18.8411 148.466 19.3931C148.842 19.9371 149.03 20.5771 149.03 21.3131C149.03 22.0331 148.842 22.6691 148.466 23.2211C148.098 23.7651 147.578 24.1891 146.906 24.4931C146.234 24.7971 145.45 24.9491 144.554 24.9491ZM144.566 22.9331C144.926 22.9331 145.23 22.8691 145.478 22.7411C145.734 22.6131 145.926 22.4291 146.054 22.1891C146.19 21.9411 146.258 21.6491 146.258 21.3131C146.258 20.9691 146.19 20.6771 146.054 20.4371C145.926 20.1891 145.734 20.0011 145.478 19.8731C145.23 19.7451 144.926 19.6811 144.566 19.6811C144.206 19.6811 143.898 19.7451 143.642 19.8731C143.386 20.0011 143.19 20.1891 143.054 20.4371C142.926 20.6771 142.862 20.9651 142.862 21.3011C142.862 21.6451 142.926 21.9411 143.054 22.1891C143.19 22.4291 143.386 22.6131 143.642 22.7411C143.898 22.8691 144.206 22.9331 144.566 22.9331ZM149.605 17.8691H152.413L152.821 20.3051V24.7451H150.073V20.2211L149.605 17.8691ZM155.953 17.7371V20.0771C155.697 20.0291 155.461 19.9971 155.245 19.9811C155.037 19.9571 154.845 19.9451 154.669 19.9451C154.341 19.9451 154.037 20.0091 153.757 20.1371C153.477 20.2571 153.249 20.4691 153.073 20.7731C152.905 21.0691 152.821 21.4811 152.821 22.0091L152.317 21.3851C152.389 20.8891 152.485 20.4211 152.605 19.9811C152.733 19.5331 152.905 19.1371 153.121 18.7931C153.337 18.4411 153.605 18.1651 153.925 17.9651C154.253 17.7651 154.653 17.6651 155.125 17.6651C155.253 17.6651 155.385 17.6731 155.521 17.6891C155.657 17.6971 155.801 17.7131 155.953 17.7371ZM162.752 24.7451L162.428 22.2971L162.764 21.3131L162.428 20.3411L162.752 17.8691H165.608L165.152 21.3011L165.608 24.7451H162.752ZM163.364 21.3131C163.268 22.0411 163.056 22.6811 162.728 23.2331C162.408 23.7771 161.992 24.2011 161.48 24.5051C160.976 24.8011 160.396 24.9491 159.74 24.9491C159.076 24.9491 158.488 24.7971 157.976 24.4931C157.464 24.1891 157.064 23.7651 156.776 23.2211C156.496 22.6691 156.356 22.0331 156.356 21.3131C156.356 20.5771 156.496 19.9371 156.776 19.3931C157.064 18.8411 157.464 18.4171 157.976 18.1211C158.488 17.8171 159.076 17.6651 159.74 17.6651C160.396 17.6651 160.976 17.8131 161.48 18.1091C161.992 18.4051 162.412 18.8291 162.74 19.3811C163.068 19.9251 163.276 20.5691 163.364 21.3131ZM159.128 21.3131C159.128 21.6171 159.188 21.8851 159.308 22.1171C159.436 22.3491 159.612 22.5331 159.836 22.6691C160.06 22.8051 160.316 22.8731 160.604 22.8731C160.9 22.8731 161.184 22.8051 161.456 22.6691C161.728 22.5331 161.968 22.3491 162.176 22.1171C162.384 21.8851 162.536 21.6171 162.632 21.3131C162.536 21.0091 162.384 20.7411 162.176 20.5091C161.968 20.2691 161.728 20.0811 161.456 19.9451C161.184 19.8091 160.9 19.7411 160.604 19.7411C160.316 19.7411 160.06 19.8091 159.836 19.9451C159.612 20.0811 159.436 20.2691 159.308 20.5091C159.188 20.7411 159.128 21.0091 159.128 21.3131ZM166.134 19.8851V18.6971L167.502 18.0731L168.702 16.0091H170.262V17.8691H173.046V19.8851H170.262V21.6011C170.262 22.0651 170.35 22.3931 170.526 22.5851C170.71 22.7771 171.066 22.8731 171.594 22.8731C171.922 22.8731 172.214 22.8491 172.47 22.8011C172.726 22.7451 172.958 22.6771 173.166 22.5971V24.6251C172.91 24.7051 172.586 24.7771 172.194 24.8411C171.802 24.9131 171.39 24.9491 170.958 24.9491C170.174 24.9491 169.526 24.8291 169.014 24.5891C168.51 24.3491 168.13 24.0051 167.874 23.5571C167.626 23.1091 167.502 22.5811 167.502 21.9731V19.8851H166.134Z" fill="white"/>
<defs>
<filter id="filter0_i_962_568095" x="11.2458" y="16.4561" width="18.0764" height="9.57874" filterUnits="userSpaceOnUse" color-interpolation-filters="sRGB">
<feFlood flood-opacity="0" result="BackgroundImageFix"/>
<feBlend mode="normal" in="SourceGraphic" in2="BackgroundImageFix" result="shape"/>
<feColorMatrix in="SourceAlpha" type="matrix" values="0 0 0 0 0 0 0 0 0 0 0 0 0 0 0 0 0 0 127 0" result="hardAlpha"/>
<feOffset dy="1.68421"/>
<feGaussianBlur stdDeviation="9.68421"/>
<feComposite in2="hardAlpha" operator="arithmetic" k2="-1" k3="1"/>
<feColorMatrix type="matrix" values="0 0 0 0 0 0 0 0 0 0 0 0 0 0 0 0 0 0 1 0"/>
<feBlend mode="normal" in2="shape" result="effect1_innerShadow_962_568095"/>
</filter>
</defs>
</svg>
