<svg width="357" height="258" viewBox="0 0 357 258" fill="none" xmlns="http://www.w3.org/2000/svg">
<path d="M0 116.25C0 52.0469 52.0469 0 116.25 0H186V69.75C186 133.953 133.953 186 69.75 186H0V116.25Z" fill="#526ED3"/>
<path d="M186 0H255.75C319.953 0 372 52.0469 372 116.25V186H302.25C238.047 186 186 133.953 186 69.75V0Z" fill="#526ED3"/>
<path d="M186 302.25C186 238.047 238.047 186 302.25 186H372V255.75C372 319.953 319.953 372 255.75 372H186V302.25Z" fill="#526ED3"/>
<path d="M0 186H69.75C133.953 186 186 238.047 186 302.25V372H116.25C52.0469 372 0 319.953 0 255.75V186Z" fill="#526ED3"/>
</svg>
