<svg width="16" height="16" viewBox="0 0 16 16" fill="none" xmlns="http://www.w3.org/2000/svg">
<path d="M9.80241 13.0897L9.80239 13.0896L8.02912 11.0735C7.15125 10.0754 7.0473 9.63681 7.10506 9.54226L7.7706 9.00624L10.4681 6.89628C10.6856 6.72615 10.7241 6.41191 10.5539 6.1944C10.3838 5.97689 10.0695 5.93848 9.85204 6.10861L7.15167 8.22073L6.3396 8.88355C6.15003 9.08701 6.02913 9.43495 6.16098 9.92972C6.28404 10.3915 6.62919 11.0017 7.3641 11.8396L7.09267 12.3748C6.91737 12.6185 6.75461 12.8447 6.60481 12.9998C6.45597 13.1539 6.18552 13.3804 5.80883 13.3054C5.4371 13.2315 5.27029 12.9241 5.18769 12.7269C5.10381 12.5266 5.03277 12.255 4.95569 11.9602L4.62135 10.6826C4.43565 9.97294 4.37152 9.76896 4.25068 9.61882C4.23543 9.59987 4.21954 9.58156 4.20307 9.56391C4.07549 9.42731 3.89531 9.34325 3.23534 9.0787L3.19919 9.06421C2.54879 8.80352 2.01305 8.58879 1.63833 8.37781C1.2753 8.17341 0.883275 7.87625 0.838176 7.37487C0.831167 7.29695 0.831287 7.21852 0.838535 7.14062C0.885177 6.63934 1.27818 6.34344 1.64184 6.14025C2.01722 5.93051 2.55363 5.71755 3.20482 5.45903L3.20483 5.45903L11.1942 2.28701C12.0114 1.96253 12.6797 1.6972 13.2048 1.57623C13.7401 1.4529 14.2931 1.43984 14.7264 1.84067C15.1512 2.23359 15.202 2.78712 15.1491 3.34498C15.0966 3.89847 14.9239 4.61828 14.7109 5.5062L13.0978 12.2309C12.9621 12.7969 12.8475 13.2747 12.71 13.6214C12.5712 13.9716 12.3485 14.3478 11.8986 14.4667C11.4432 14.5871 11.0669 14.3627 10.7809 14.1206C10.5 13.8829 10.1796 13.5186 9.80241 13.0897Z" fill="#1A1D2E"/>
</svg>
